<?xml version="1.0" encoding="UTF-8"?>
<svg version="1.1" xmlns="http://www.w3.org/2000/svg" width="500" height="333">
<path d="M0 0 C165 0 330 0 500 0 C500 109.89 500 219.78 500 333 C335 333 170 333 0 333 C0 223.11 0 113.22 0 0 Z " fill="#000000" transform="translate(0,0)"/>
<path d="M0 0 C12.8142534 0.4870424 25.35352722 1.88183971 38 4 C39.47847412 4.2472583 39.47847412 4.2472583 40.98681641 4.49951172 C52.86737045 6.54618565 64.4146998 9.17126738 75.875 12.9375 C76.83059814 13.24905029 77.78619629 13.56060059 78.77075195 13.8815918 C87.73606017 16.9675196 96.21728354 21.12497373 103.5625 27.1875 C104.36816406 27.84105469 105.17382812 28.49460937 106.00390625 29.16796875 C108 31 108 31 110 34 C113.11131046 32.96289651 114.22403755 31.79716157 116.453125 29.515625 C136.55031559 9.82443826 168.46956346 5.95708206 195 2 C195.87817383 1.86722656 196.75634766 1.73445313 197.66113281 1.59765625 C205.78688517 0.39384109 213.77566218 -0.31364 222 0 C219.69162802 18.32270257 208.37190447 37.83787567 197 52 C196.42636719 52.73734375 195.85273438 53.4746875 195.26171875 54.234375 C188.12069704 62.96776247 179.46194703 66.92425583 168.9375 70.4375 C166.71354107 71.2124173 164.49087973 71.99106861 162.26953125 72.7734375 C161.19654785 73.15081055 160.12356445 73.52818359 159.01806641 73.91699219 C147.9395211 77.89243524 138.21251894 82.51579282 129 90 C128.1234375 90.67160156 127.246875 91.34320313 126.34375 92.03515625 C123.56661837 94.36331827 121.88665974 96.92544338 120 100 C120.66386719 100.13277344 121.32773437 100.26554687 122.01171875 100.40234375 C130 102 130 102 132.52734375 102.54296875 C142.8196786 104.44534344 151.46118463 101.64379302 161 98 C162.22332031 97.53464844 163.44664062 97.06929688 164.70703125 96.58984375 C166.90671917 95.74305031 169.10260753 94.88625915 171.29296875 94.015625 C180.39655925 90.6001365 191.60087741 90.72417936 200.7734375 93.9453125 C204.57637143 95.74670225 208.02258484 98.01481091 211 101 C211.33 101.99 211.66 102.98 212 104 C211.25234375 103.79503906 210.5046875 103.59007812 209.734375 103.37890625 C208.74953125 103.10949219 207.7646875 102.84007812 206.75 102.5625 C205.77546875 102.29566406 204.8009375 102.02882813 203.796875 101.75390625 C202.87390625 101.50511719 201.9509375 101.25632812 201 101 C200.30519531 100.80664062 199.61039063 100.61328125 198.89453125 100.4140625 C184.95662975 97.36784073 170.77478704 104.01416451 158.18359375 109.1484375 C155.39069005 110.23761998 152.9973372 110.67301776 150 111 C149.21367187 111.10054688 148.42734375 111.20109375 147.6171875 111.3046875 C139.56874255 111.86516417 133.46137184 109.54082027 126.15405273 106.55175781 C120.94480667 104.49068347 116.97228794 103.67125028 111.375 103.75 C107.25024956 103.65908323 105.62218902 103.54756511 102.4921875 100.79296875 C100.98472476 98.87318606 99.52760697 96.91289483 98.12109375 94.91796875 C88.21653177 81.29235586 70.49798576 76.22822303 55.23828125 71.19555664 C33.30741374 63.91864529 21.23629269 50.27217034 11 30 C0.7776725 8.0086624 0.7776725 8.0086624 0 0 Z " fill="#1E80C3" transform="translate(139,76)"/>
<path d="M0 0 C1.14453125 1.55078125 1.14453125 1.55078125 2 4 C1.37469248 6.57138654 0.67085771 8.75568296 -0.3125 11.1875 C-0.58594238 11.88512451 -0.85938477 12.58274902 -1.14111328 13.30151367 C-6.18188734 25.76180724 -12.57181474 37.50386826 -21 48 C-21.57363281 48.73734375 -22.14726562 49.4746875 -22.73828125 50.234375 C-29.87930296 58.96776247 -38.53805297 62.92425583 -49.0625 66.4375 C-51.28645893 67.2124173 -53.50912027 67.99106861 -55.73046875 68.7734375 C-56.80345215 69.15081055 -57.87643555 69.52818359 -58.98193359 69.91699219 C-70.0604789 73.89243524 -79.78748106 78.51579282 -89 86 C-89.8765625 86.67160156 -90.753125 87.34320313 -91.65625 88.03515625 C-94.43338163 90.36331827 -96.11334026 92.92544338 -98 96 C-97.33613281 96.13277344 -96.67226563 96.26554687 -95.98828125 96.40234375 C-88 98 -88 98 -85.47265625 98.54296875 C-75.1803214 100.44534344 -66.53881537 97.64379302 -57 94 C-55.77667969 93.53464844 -54.55335938 93.06929688 -53.29296875 92.58984375 C-51.09328083 91.74305031 -48.89739247 90.88625915 -46.70703125 90.015625 C-37.60344075 86.6001365 -26.39912259 86.72417936 -17.2265625 89.9453125 C-13.42362857 91.74670225 -9.97741516 94.01481091 -7 97 C-6.67 97.99 -6.34 98.98 -6 100 C-6.74765625 99.79503906 -7.4953125 99.59007812 -8.265625 99.37890625 C-9.25046875 99.10949219 -10.2353125 98.84007812 -11.25 98.5625 C-12.22453125 98.29566406 -13.1990625 98.02882813 -14.203125 97.75390625 C-15.12609375 97.50511719 -16.0490625 97.25632812 -17 97 C-17.69480469 96.80664062 -18.38960938 96.61328125 -19.10546875 96.4140625 C-33.04337025 93.36784073 -47.22521296 100.01416451 -59.81640625 105.1484375 C-62.60930995 106.23761998 -65.0026628 106.67301776 -68 107 C-68.78632813 107.10054688 -69.57265625 107.20109375 -70.3828125 107.3046875 C-78.43160338 107.86518826 -84.5121743 105.52669639 -91.82836914 102.5715332 C-98.22013684 100.06873645 -103.60983039 99.20779544 -110.5078125 99.16796875 C-111.33023438 99.11253906 -112.15265625 99.05710937 -113 99 C-113.33 98.34 -113.66 97.68 -114 97 C-111 96 -111 96 -108 97 C-108.02094727 95.81035645 -108.04189453 94.62071289 -108.06347656 93.39501953 C-108.13640106 88.9408798 -108.1819888 84.48679181 -108.21972656 80.03222656 C-108.23972336 78.11188861 -108.26693006 76.19161061 -108.30175781 74.27148438 C-108.53659491 60.9824672 -108.6940589 50.0448284 -99.02734375 39.8671875 C-88.2044933 29.89932138 -75.0312704 24.07008447 -60.88671875 20.7265625 C-58.12223979 20.2932833 -58.12223979 20.2932833 -57 19 C-54.86813085 18.5347171 -52.72481401 18.12172382 -50.578125 17.73046875 C-49.2278272 17.47871603 -47.87756814 17.2267555 -46.52734375 16.97460938 C-44.40888773 16.58355083 -42.29007289 16.19476845 -40.17041016 15.81030273 C-18.16014275 12.10278336 -18.16014275 12.10278336 0 0 Z " fill="#0B5BA3" transform="translate(357,80)"/>
<path d="M0 0 C0.75410156 0.00322266 1.50820313 0.00644531 2.28515625 0.00976562 C3.06246094 0.01814453 3.83976563 0.02652344 4.640625 0.03515625 C5.43339844 0.03966797 6.22617187 0.04417969 7.04296875 0.04882812 C8.99222008 0.0605706 10.94143238 0.07850479 12.890625 0.09765625 C12.890625 0.75765625 12.890625 1.41765625 12.890625 2.09765625 C11.39361888 3.26165488 9.83888606 4.35149211 8.265625 5.41015625 C3.46321677 8.79646974 -0.75117068 12.46703511 -4.984375 16.53515625 C-15.86528131 26.90162719 -27.63932686 34.75902567 -42.109375 39.09765625 C-43.10195313 39.45085937 -44.09453125 39.8040625 -45.1171875 40.16796875 C-50.44431808 41.67450213 -55.93146512 41.38666449 -61.421875 41.34765625 C-62.49888672 41.35539062 -63.57589844 41.363125 -64.68554688 41.37109375 C-71.39269386 41.35484385 -77.59431754 40.70153132 -84.109375 39.09765625 C-84.109375 38.76765625 -84.109375 38.43765625 -84.109375 38.09765625 C-82.40394531 37.85982422 -82.40394531 37.85982422 -80.6640625 37.6171875 C-61.20882512 34.74653441 -43.34336262 28.33164387 -29.109375 14.09765625 C-29.87378906 14.59394531 -30.63820313 15.09023437 -31.42578125 15.6015625 C-47.52042678 25.80839546 -65.02779751 34.58044279 -84.484375 34.34765625 C-85.73480591 34.33641724 -85.73480591 34.33641724 -87.01049805 34.32495117 C-104.39244077 34.02220059 -118.47568491 27.77123914 -133.22705078 19.17578125 C-136.00075085 17.58710946 -138.82393513 16.11079229 -141.671875 14.66015625 C-142.56003906 14.20769531 -143.44820312 13.75523437 -144.36328125 13.2890625 C-150.53690869 10.61060394 -155.92326379 9.81509551 -162.546875 9.97265625 C-163.64418945 9.98619141 -163.64418945 9.98619141 -164.76367188 10 C-166.54571798 10.02329472 -168.32759259 10.05915435 -170.109375 10.09765625 C-164.86679197 4.41321543 -158.51133377 1.91345281 -150.796875 1.59765625 C-143.16227808 1.90905331 -135.96117935 4.37435215 -129.02734375 7.4765625 C-118.53137373 12.11063228 -107.32977689 13.54941542 -96.37890625 9.51953125 C-94.0525345 8.58358426 -91.74852744 7.60371081 -89.44311523 6.61743164 C-78.77721643 2.12092003 -70.90364184 3.69186553 -60.45068359 7.8737793 C-58.66814001 8.60998968 -56.88857517 9.35340218 -55.109375 10.09765625 C-42.03326233 14.45636047 -25.88362069 9.74513034 -13.87890625 4.03710938 C-12.55034295 3.3580932 -11.22820851 2.66619075 -9.91601562 1.95605469 C-6.62157924 0.39075221 -3.62149503 -0.02743557 0 0 Z " fill="#1D7BBC" transform="translate(326.109375,202.90234375)"/>
<path d="M0 0 C12.26290478 4.85106086 23.16854959 1.62237365 34.6875 -3.3203125 C44.02559539 -7.29698362 52.34448516 -6.42923597 61.65625 -2.94921875 C62.54957031 -2.51609375 63.44289063 -2.08296875 64.36328125 -1.63671875 C73.96010294 2.98445941 83.83610147 3.92402832 94.140625 1.09375 C97.37107943 -0.14721725 100.50810127 -1.51294867 103.65625 -2.94921875 C114.44543722 -7.55360084 125.55237169 -10.54283612 137.15625 -6.82421875 C146.80196363 -1.65687216 146.80196363 -1.65687216 148.34765625 3.2421875 C148.50041016 4.13744141 148.50041016 4.13744141 148.65625 5.05078125 C148.16640625 4.83421875 147.6765625 4.61765625 147.171875 4.39453125 C130.91924974 -1.65817057 116.03622321 2.16349071 100.765625 8.88671875 C88.97289091 14.0585877 78.02032102 14.7643835 65.96875 10.11328125 C62.81678803 8.85717036 59.6929671 7.5691398 56.65625 6.05078125 C47.91932213 5.52555553 39.75263687 5.34622328 31.65625 9.05078125 C19.42365847 14.35738409 9.48745064 14.28649109 -3.01171875 9.421875 C-4.11128906 8.96941406 -5.21085937 8.51695312 -6.34375 8.05078125 C-19.8448015 2.61720664 -29.98178285 0.69311999 -44.34375 4.05078125 C-46.00942238 4.38904805 -47.67584826 4.72368391 -49.34375 5.05078125 C-47.99278802 0.32241432 -45.44186519 -2.39557524 -41.34375 -4.94921875 C-27.11788787 -11.77654455 -13.48763747 -5.98421278 0 0 Z " fill="#0F65AA" transform="translate(201.34375,192.94921875)"/>
<path d="M0 0 C12.8531269 5.30245813 24.52048481 7.15243553 37.68554688 1.89819336 C39.22550456 1.24973047 40.76378201 0.59726189 42.30029297 -0.05932617 C52.03458339 -4.16793442 59.23991563 -3.40555639 68.94506836 0.29541016 C70.25560546 0.82973073 71.56427495 1.36865956 72.87084961 1.91259766 C78.52571862 4.2389816 83.95702882 5.63329513 90.07006836 6.04541016 C91.1206543 6.12017578 92.17124023 6.19494141 93.25366211 6.27197266 C94.03870117 6.32095703 94.82374023 6.36994141 95.63256836 6.42041016 C94.31256836 6.75041016 92.99256836 7.08041016 91.63256836 7.42041016 C91.63256836 8.08041016 91.63256836 8.74041016 91.63256836 9.42041016 C85.32210942 11.49922872 78.99137296 13.49463017 72.63256836 15.42041016 C71.48916992 15.77232422 70.34577148 16.12423828 69.16772461 16.48681641 C44.45967945 22.93645745 22.99245644 17.03362773 0.65307617 6.72314453 C-7.97590974 2.81741855 -15.9215034 0.28833618 -25.36743164 -0.57958984 C-25.03743164 -1.23958984 -24.70743164 -1.89958984 -24.36743164 -2.57958984 C-21.85571289 -3.02880859 -21.85571289 -3.02880859 -18.67993164 -3.26708984 C-17.64481445 -3.35345703 -16.60969727 -3.43982422 -15.54321289 -3.52880859 C-9.7357002 -3.62167165 -5.27280386 -2.21994791 0 0 Z " fill="#2891CF" transform="translate(194.367431640625,209.57958984375)"/>
<path d="M0 0 C5.61 0 11.22 0 17 0 C17 0.66 17 1.32 17 2 C15.50299388 3.16399863 13.94826106 4.25383586 12.375 5.3125 C7.57259177 8.69881349 3.35820432 12.36937886 -0.875 16.4375 C-11.75590631 26.80397094 -23.52995186 34.66136942 -38 39 C-38.99 39.35449219 -39.98 39.70898438 -41 40.07421875 C-46.36471787 41.59363462 -51.91033949 41.24916533 -57.4375 41.1875 C-58.53126953 41.18685547 -59.62503906 41.18621094 -60.75195312 41.18554688 C-66.59011528 41.15391325 -72.22716915 40.87679691 -78 40 C-78 39.67 -78 39.34 -78 39 C-77.41621582 38.95512451 -76.83243164 38.91024902 -76.23095703 38.86401367 C-73.52794858 38.64974755 -70.82661048 38.41870251 -68.125 38.1875 C-67.2071875 38.11724609 -66.289375 38.04699219 -65.34375 37.97460938 C-45.90844406 36.26375498 -29.14316528 26.48998755 -14.34326172 14.30517578 C-7.49620487 8.69192008 -0.76469625 3.90536875 8 2 C5.36 1.67 2.72 1.34 0 1 C0 0.67 0 0.34 0 0 Z " fill="#074689" transform="translate(322,203)"/>
<path d="M0 0 C12.00330488 -0.73389772 22.77329729 4.59611758 33.5625 9.26171875 C43.94631881 13.28809747 55.25045125 11.79727832 65.5625 8.26171875 C64.5625 11.26171875 64.5625 11.26171875 61.9453125 12.83203125 C60.87023437 13.34507812 59.79515625 13.858125 58.6875 14.38671875 C57.61757812 14.90492188 56.54765625 15.423125 55.4453125 15.95703125 C44.5210636 20.90106802 32.75858522 18.87478181 21.875 14.88671875 C18.75890202 13.70786554 15.65886658 12.49133074 12.5625 11.26171875 C7.81103689 9.40218808 3.50618541 8.87812679 -1.5625 8.88671875 C-2.67540405 8.88369751 -2.67540405 8.88369751 -3.81079102 8.88061523 C-9.72563834 8.98843631 -14.71735163 10.23849445 -20.21484375 12.484375 C-20.94832031 12.74089844 -21.68179688 12.99742187 -22.4375 13.26171875 C-23.0975 12.93171875 -23.7575 12.60171875 -24.4375 12.26171875 C-17.45580807 4.26981416 -10.45890753 1.12299167 0 0 Z " fill="#1E7BBD" transform="translate(173.4375,167.73828125)"/>
<path d="M0 0 C5.40451389 3.83854167 5.40451389 3.83854167 6.6484375 7.5703125 C5.90078125 7.36535156 5.153125 7.16039062 4.3828125 6.94921875 C2.90554688 6.54509766 2.90554688 6.54509766 1.3984375 6.1328125 C-0.06335938 5.73255859 -0.06335938 5.73255859 -1.5546875 5.32421875 C-2.47765625 5.07542969 -3.400625 4.82664063 -4.3515625 4.5703125 C-5.04636719 4.37695312 -5.74117188 4.18359375 -6.45703125 3.984375 C-20.39493275 0.93815323 -34.57677546 7.58447701 -47.16796875 12.71875 C-54.669919 15.64437639 -64.56283446 15.91410315 -72.1015625 13.0703125 C-73.1740625 12.5753125 -74.2465625 12.0803125 -75.3515625 11.5703125 C-75.0215625 10.2503125 -74.6915625 8.9303125 -74.3515625 7.5703125 C-73.44277344 7.55613281 -72.53398437 7.54195312 -71.59765625 7.52734375 C-61.66009724 7.15022613 -53.69283683 5.15927595 -44.3515625 1.5703125 C-42.52431641 0.87421875 -42.52431641 0.87421875 -40.66015625 0.1640625 C-38.45505315 -0.68348551 -36.25390345 -1.54146141 -34.05859375 -2.4140625 C-23.45680963 -6.39164384 -9.78150645 -5.94689595 0 0 Z " fill="#0F65AB" transform="translate(344.3515625,172.4296875)"/>
<path d="M0 0 C5.65799857 2.23823767 10.96897177 2.17484172 16.96875 2.11328125 C17.80470703 2.10876953 18.64066406 2.10425781 19.50195312 2.09960938 C21.55341649 2.08788673 23.60484273 2.06995328 25.65625 2.05078125 C24.28641497 5.21193901 23.6671862 6.04349045 20.65625 8.05078125 C16.31788284 8.5245499 11.95514265 8.42116358 7.59375 8.42578125 C5.80807617 8.46251953 5.80807617 8.46251953 3.98632812 8.5 C-3.71242674 8.52539446 -9.43421117 7.39437413 -16.34375 4.05078125 C-25.74637748 0.63164399 -34.81472278 1.82300526 -44.34375 4.05078125 C-46.00942238 4.38904805 -47.67584826 4.72368391 -49.34375 5.05078125 C-47.99278802 0.32241432 -45.44186519 -2.39557524 -41.34375 -4.94921875 C-27.11788787 -11.77654455 -13.48763747 -5.98421278 0 0 Z " fill="#52AEDF" transform="translate(201.34375,192.94921875)"/>
<path d="M0 0 C6.56203228 2.66938163 13.11685347 4.11640779 20.09765625 5.35986328 C20.09765625 5.68986328 20.09765625 6.01986328 20.09765625 6.35986328 C19.09968018 6.44288696 19.09968018 6.44288696 18.08154297 6.52758789 C15.04502912 6.78164412 12.00884652 7.03947001 8.97265625 7.29736328 C7.9259375 7.384375 6.87921875 7.47138672 5.80078125 7.56103516 C4.27324219 7.69155273 4.27324219 7.69155273 2.71484375 7.82470703 C1.78269043 7.90325928 0.85053711 7.98181152 -0.10986328 8.06274414 C-2.03583672 8.26766718 -3.9549958 8.54504323 -5.86254883 8.88061523 C-11.36463748 9.74806363 -16.90571998 9.58649334 -22.46484375 9.60986328 C-23.66431641 9.63048828 -24.86378906 9.65111328 -26.09960938 9.67236328 C-34.42219282 9.70829456 -41.88538472 8.58172297 -49.90234375 6.35986328 C-49.90234375 6.02986328 -49.90234375 5.69986328 -49.90234375 5.35986328 C-49.22171875 5.21291016 -48.54109375 5.06595703 -47.83984375 4.91455078 C-42.34864207 3.64398018 -37.15640816 2.12803205 -31.9453125 0 C-20.15999118 -4.77440718 -11.77181426 -4.80569007 0 0 Z " fill="#45A8DE" transform="translate(264.90234375,210.64013671875)"/>
<path d="M0 0 C-2.9376643 1.57083438 -5.82191097 2.58353508 -9 3.5625 C-16.00306117 6.07355779 -21.24709631 10.38731146 -27 15 C-47.37637508 30.87184483 -65.84985039 38.79376508 -92 38 C-92 37.67 -92 37.34 -92 37 C-90.86304688 36.84144531 -89.72609375 36.68289062 -88.5546875 36.51953125 C-69.09945012 33.64887816 -51.23398762 27.23398762 -37 13 C-38.65 13.66 -40.3 14.32 -42 15 C-42.495 14.01 -42.495 14.01 -43 13 C-46.04581269 12.53045739 -46.04581269 12.53045739 -49.5625 12.375 C-50.76003906 12.30023438 -51.95757812 12.22546875 -53.19140625 12.1484375 C-54.11824219 12.09945312 -55.04507813 12.05046875 -56 12 C-56 11.67 -56 11.34 -56 11 C-55.030625 10.91363281 -54.06125 10.82726562 -53.0625 10.73828125 C-41.78916197 9.60583868 -29.80309509 7.72844237 -20 1.6875 C-14.22455353 -1.58087766 -6.40029734 -0.27962464 0 0 Z " fill="#0F62A9" transform="translate(334,204)"/>
<path d="M0 0 C-2.90578245 3.78922546 -5.54332354 6.9919232 -9.8125 9.25 C-13.27034778 10.67869662 -13.27034778 10.67869662 -14 14 C-22.65746258 18.32873129 -32.01807939 19.55137012 -41.44921875 17.10546875 C-44.33263284 16.13978096 -47.17420748 15.12230058 -50 14 C-48 12 -48 12 -45.7409668 11.85229492 C-44.35905151 11.91574097 -44.35905151 11.91574097 -42.94921875 11.98046875 C-41.94052734 12.00947266 -40.93183594 12.03847656 -39.89257812 12.06835938 C-37.76709228 12.1473689 -35.64201674 12.2383892 -33.51757812 12.34179688 C-28.10519318 12.64721388 -28.10519318 12.64721388 -23.15478516 10.87353516 C-21.59891864 9.39452825 -21.59891864 9.39452825 -20 7 C-20.99 6.67 -21.98 6.34 -23 6 C-20.48425692 4.98524649 -17.96365897 3.98820668 -15.4375 3 C-14.73302734 2.71382812 -14.02855469 2.42765625 -13.30273438 2.1328125 C-8.63528884 0.32605939 -5.00267527 -0.31554325 0 0 Z " fill="#1D7DBD" transform="translate(247,188)"/>
<path d="M0 0 C7.67750668 -0.31823862 14.39094478 0.93128204 21.390625 4.1875 C21.885625 5.1775 21.885625 5.1775 22.390625 6.1875 C17.98673178 7.1311914 14.79135018 6.96409856 10.390625 6.1875 C4.56552738 5.80342763 0.01365119 6.48751534 -5.609375 8.1875 C-8.17033568 8.88071203 -10.73286199 9.56816439 -13.296875 10.25 C-13.94720703 10.42337891 -14.59753906 10.59675781 -15.26757812 10.77539062 C-18.37599993 11.60240193 -21.48557979 12.4203908 -24.609375 13.1875 C-19.51549465 6.35097638 -13.96859071 2.70206096 -5.734375 0.375 C-3.82227253 0.26027385 -1.91061495 0.1372897 0 0 Z " fill="#53AEDD" transform="translate(173.609375,167.8125)"/>
<path d="M0 0 C2.57111417 1.27035932 2.57111417 1.27035932 5.34375 2.1875 C6.08109375 2.5278125 6.8184375 2.868125 7.578125 3.21875 C8.073125 4.70375 8.073125 4.70375 8.578125 6.21875 C1.92758976 6.19109705 -3.54144063 4.96357999 -9.609375 2.28125 C-17.39979235 -1.14288663 -24.98943544 -2.13856735 -33.421875 -2.78125 C-33.421875 -3.11125 -33.421875 -3.44125 -33.421875 -3.78125 C-21.48408542 -7.84517837 -11.11245714 -5.32878062 0 0 Z " fill="#3599D1" transform="translate(201.421875,178.78125)"/>
<path d="M0 0 C4.12417465 0.88678241 7.70725136 2.16850717 11.546875 3.87890625 C12.24208252 4.18691162 12.93729004 4.49491699 13.65356445 4.81225586 C22.37333642 8.82151988 30.1155998 13.98016459 35.796875 21.81640625 C35.136875 23.13640625 34.476875 24.45640625 33.796875 25.81640625 C33.013125 24.80578125 32.229375 23.79515625 31.421875 22.75390625 C21.86091745 11.67391806 7.47895637 5.94043787 -6.203125 1.81640625 C-3.203125 -0.18359375 -3.203125 -0.18359375 0 0 Z " fill="#1964A4" transform="translate(205.203125,147.18359375)"/>
<path d="M0 0 C-1.36983503 3.16115776 -1.9890638 3.9927092 -5 6 C-7.91796875 6.1953125 -7.91796875 6.1953125 -11.1875 6.125 C-12.27417969 6.10695312 -13.36085937 6.08890625 -14.48046875 6.0703125 C-15.72763672 6.03550781 -15.72763672 6.03550781 -17 6 C-17.66 4.68 -18.32 3.36 -19 2 C-16.0837732 1.0279244 -13.67442813 0.70066982 -10.625 0.4375 C-9.68914062 0.35371094 -8.75328125 0.26992187 -7.7890625 0.18359375 C-5.18226956 0.01199814 -2.6113921 -0.0332359 0 0 Z " fill="#39A1D9" transform="translate(227,195)"/>
<path d="M0 0 C3.62262144 1.4371277 7.22024326 2.92620981 10.8125 4.4375 C15.50753224 6.39908331 20.2210626 8.2538498 25 10 C25 10.99 25 11.98 25 13 C15.68924133 11.32101073 6.13739668 8.61883726 0 1 C0 0.67 0 0.34 0 0 Z " fill="#1A6DAD" transform="translate(174,135)"/>
<path d="M0 0 C-1.24853673 0.79397239 -2.49890043 1.58507217 -3.75 2.375 C-4.44609375 2.81585938 -5.1421875 3.25671875 -5.859375 3.7109375 C-9.43882316 5.8664446 -13.10869344 7.48671411 -17 9 C-17.33 8.34 -17.66 7.68 -18 7 C-21.04581269 6.53045739 -21.04581269 6.53045739 -24.5625 6.375 C-25.76003906 6.30023438 -26.95757812 6.22546875 -28.19140625 6.1484375 C-29.11824219 6.09945312 -30.04507812 6.05046875 -31 6 C-31 5.67 -31 5.34 -31 5 C-29.99582031 4.90203125 -28.99164063 4.8040625 -27.95703125 4.703125 C-19.72792684 3.8268497 -12.31295678 2.45851956 -4.4765625 -0.29296875 C-2 -1 -2 -1 0 0 Z " fill="#32678A" transform="translate(309,210)"/>
<path d="M0 0 C0.33 0.66 0.66 1.32 1 2 C0.14535156 2.04898438 -0.70929688 2.09796875 -1.58984375 2.1484375 C-2.69457031 2.22320312 -3.79929688 2.29796875 -4.9375 2.375 C-6.03964844 2.44460937 -7.14179688 2.51421875 -8.27734375 2.5859375 C-9.17582031 2.72257813 -10.07429687 2.85921875 -11 3 C-11.33 3.66 -11.66 4.32 -12 5 C-13.99628664 5.3548954 -15.99690671 5.68578929 -18 6 C-18.721875 6.37125 -19.44375 6.7425 -20.1875 7.125 C-22 8 -22 8 -25 7 C-16.46294813 1.32307718 -10.27415036 -0.32906531 0 0 Z " fill="#2F88BC" transform="translate(181,205)"/>
<path d="M0 0 C0 0.99 0 1.98 0 3 C-9.42817197 4.46051903 -18.43529656 5.29032827 -28 5 C-28 4.67 -28 4.34 -28 4 C-26.78183594 3.80664062 -25.56367188 3.61328125 -24.30859375 3.4140625 C-22.68486021 3.1512617 -21.06116426 2.8882285 -19.4375 2.625 C-18.23770508 2.43550781 -18.23770508 2.43550781 -17.01367188 2.2421875 C-13.28881754 1.63404802 -9.70258032 0.96455093 -6.09765625 -0.1640625 C-3 -1 -3 -1 0 0 Z " fill="#145C9E" transform="translate(270,237)"/>
<path d="M0 0 C2.43374613 0.06833748 4.82923306 0.25019181 7.25244141 0.48632812 C8.09742188 0.55207031 8.94240234 0.6178125 9.81298828 0.68554688 C11.8985305 0.85050502 13.9820252 1.04098838 16.06494141 1.23632812 C15.73494141 1.89632812 15.40494141 2.55632812 15.06494141 3.23632812 C12.35777898 4.1387156 10.82717372 4.35484115 8.05322266 4.33398438 C6.91723633 4.32915039 6.91723633 4.32915039 5.75830078 4.32421875 C4.97261719 4.31583984 4.18693359 4.30746094 3.37744141 4.29882812 C2.58015625 4.29431641 1.78287109 4.28980469 0.96142578 4.28515625 C-1.00410116 4.27338663 -2.96958944 4.25545161 -4.93505859 4.23632812 C-3.76553826 1.6900307 -2.87612705 0.35126053 0 0 Z " fill="#2586C0" transform="translate(210.93505859375,181.763671875)"/>
<path d="M0 0 C0.74362793 0.05236816 1.48725586 0.10473633 2.25341797 0.15869141 C3.05908203 0.21025391 3.86474609 0.26181641 4.69482422 0.31494141 C5.95746094 0.41162109 5.95746094 0.41162109 7.24560547 0.51025391 C8.09509766 0.56697266 8.94458984 0.62369141 9.81982422 0.68212891 C11.92073997 0.82376368 14.02077881 0.97829717 16.12060547 1.13525391 C15.13060547 1.46525391 14.14060547 1.79525391 13.12060547 2.13525391 C13.12060547 2.79525391 13.12060547 3.45525391 13.12060547 4.13525391 C6.46118575 5.41472575 2.30513554 4.94640394 -3.87939453 2.13525391 C-1.87939453 0.13525391 -1.87939453 0.13525391 0 0 Z " fill="#2888C3" transform="translate(200.87939453125,199.86474609375)"/>
<path d="M0 0 C1.4589426 0.47730838 2.91713496 0.95691042 4.375 1.4375 C5.18710938 1.70433594 5.99921875 1.97117188 6.8359375 2.24609375 C9 3 9 3 11 4 C10.34 5.32 9.68 6.64 9 8 C5.04 6.35 1.08 4.7 -3 3 C-2.01 2.01 -1.02 1.02 0 0 Z " fill="#1C7BBE" transform="translate(196,173)"/>
<path d="M0 0 C1.46184058 0.22860058 2.91955419 0.48370392 4.375 0.75 C5.59316406 0.95882812 5.59316406 0.95882812 6.8359375 1.171875 C9 2 9 2 10.2890625 4.078125 C10.64097656 5.02945313 10.64097656 5.02945313 11 6 C9.20793453 5.85915204 7.41635083 5.71216299 5.625 5.5625 C4.62726563 5.48128906 3.62953125 5.40007812 2.6015625 5.31640625 C0 5 0 5 -2 4 C-2 3.34 -2 2.68 -2 2 C-1.34 2 -0.68 2 0 2 C0 1.34 0 0.68 0 0 Z " fill="#2C93CC" transform="translate(199,179)"/>
<path d="M0 0 C0.66 0.165 1.32 0.33 2 0.5 C1.360625 0.603125 0.72125 0.70625 0.0625 0.8125 C-0.618125 1.039375 -1.29875 1.26625 -2 1.5 C-2.33 2.49 -2.66 3.48 -3 4.5 C-6.8063457 3.82829194 -10.35206816 2.77253436 -14 1.5 C-9.54547875 -1.46968084 -5.09423683 -0.84903947 0 0 Z " fill="#14548E" transform="translate(272,178.5)"/>
<path d="M0 0 C0 0.66 0 1.32 0 2 C-0.99 2.66 -1.98 3.32 -3 4 C-3 4.99 -3 5.98 -3 7 C-7.95 8.485 -7.95 8.485 -13 10 C-4.88679245 0 -4.88679245 0 0 0 Z " fill="#5CACD7" transform="translate(162,171)"/>
<path d="M0 0 C-0.33 1.32 -0.66 2.64 -1 4 C-2.32 4 -3.64 4 -5 4 C-5 3.67 -5 3.34 -5 3 C-9.29 2.67 -13.58 2.34 -18 2 C-18 1.67 -18 1.34 -18 1 C-16.12528812 0.83012319 -14.25021305 0.66425224 -12.375 0.5 C-11.33085937 0.4071875 -10.28671875 0.314375 -9.2109375 0.21875 C-6.12853212 0.00875645 -3.08834771 -0.03709727 0 0 Z " fill="#226EA0" transform="translate(296,214)"/>
<path d="M0 0 C-0.99 0.33 -1.98 0.66 -3 1 C-3 1.66 -3 2.32 -3 3 C-6.63 3 -10.26 3 -14 3 C-14.33 2.34 -14.66 1.68 -15 1 C-9.91913204 0.15318867 -5.15171623 -0.09038099 0 0 Z " fill="#1E83C5" transform="translate(177,209)"/>
<path d="M0 0 C0 0.99 0 1.98 0 3 C-3.96 4.98 -3.96 4.98 -8 7 C-8 6.34 -8 5.68 -8 5 C-8.66 4.34 -9.32 3.68 -10 3 C-5.05 1.515 -5.05 1.515 0 0 Z " fill="#236CA1" transform="translate(238,176)"/>
<path d="M0 0 C2.97 0.33 5.94 0.66 9 1 C9 1.33 9 1.66 9 2 C2.34362157 3.23839599 -4.2471936 3.09139136 -11 3 C-11 2.67 -11 2.34 -11 2 C-7.37 2 -3.74 2 0 2 C0 1.34 0 0.68 0 0 Z " fill="#39A3DF" transform="translate(276,215)"/>
<path d="M0 0 C0.33 0.99 0.66 1.98 1 3 C-3.29 3 -7.58 3 -12 3 C-12 2.67 -12 2.34 -12 2 C-7.8803623 0.70756464 -4.33168317 -0.26252625 0 0 Z " fill="#3DA2DA" transform="translate(180,173)"/>
<path d="M0 0 C-0.33 0.99 -0.66 1.98 -1 3 C-7.625 3.25 -7.625 3.25 -11 1 C-7.27569643 0.30710631 -3.78916254 -0.11144596 0 0 Z " fill="#48B0E7" transform="translate(226,215)"/>
<path d="M0 0 C2.475 0.99 2.475 0.99 5 2 C3.68 2.99 2.36 3.98 1 5 C-0.32 4.34 -1.64 3.68 -3 3 C-2.01 2.01 -1.02 1.02 0 0 Z " fill="#2589C8" transform="translate(196,173)"/>
<path d="M0 0 C-4.75 4 -4.75 4 -7 4 C-7 3.34 -7 2.68 -7 2 C-7.99 1.67 -8.98 1.34 -10 1 C-3.71428571 -1.42857143 -3.71428571 -1.42857143 0 0 Z " fill="#2981B6" transform="translate(234,193)"/>
<path d="M0 0 C0.66 0.33 1.32 0.66 2 1 C-0.97 3.64 -3.94 6.28 -7 9 C-7.33 8.01 -7.66 7.02 -8 6 C-5.36 4.02 -2.72 2.04 0 0 Z " fill="#101519" transform="translate(299,214)"/>
<path d="M0 0 C1.875 0.25 1.875 0.25 4 1 C5.25 3.0625 5.25 3.0625 6 5 C3.36 4.34 0.72 3.68 -2 3 C-1.34 2.67 -0.68 2.34 0 2 C0 1.34 0 0.68 0 0 Z " fill="#1A629A" transform="translate(345,175)"/>
<path d="M0 0 C0.66 0.33 1.32 0.66 2 1 C2 1.99 2 2.98 2 4 C1.34 4.66 0.68 5.32 0 6 C-0.99 6 -1.98 6 -3 6 C-1.125 1.125 -1.125 1.125 0 0 Z " fill="#5EADD6" transform="translate(155,192)"/>
<path d="M0 0 C0.763125 0.20625 1.52625 0.4125 2.3125 0.625 C2.3125 1.615 2.3125 2.605 2.3125 3.625 C-0.3275 2.965 -2.9675 2.305 -5.6875 1.625 C-2.6875 -0.375 -2.6875 -0.375 0 0 Z " fill="#195E96" transform="translate(204.6875,147.375)"/>
</svg>
